<?xml version="1.0" encoding="utf-8"?>
<!-- Generator: Adobe Illustrator 16.0.0, SVG Export Plug-In . SVG Version: 6.00 Build 0)  -->
<!DOCTYPE svg PUBLIC "-//W3C//DTD SVG 1.1//EN" "http://www.w3.org/Graphics/SVG/1.1/DTD/svg11.dtd">
<svg version="1.1" id="Layer_1" xmlns="http://www.w3.org/2000/svg" xmlns:xlink="http://www.w3.org/1999/xlink" x="0px" y="0px"
	 width="165px" height="165px" viewBox="0 0 165 165" enable-background="new 0 0 165 165" xml:space="preserve">
<g>
	<path fill-rule="evenodd" clip-rule="evenodd" fill="#FEFEFE" stroke="#8F8F8F" stroke-width="3" stroke-miterlimit="10" d="
		M87.923,67.476c7.705,0.045,15.41,0.112,23.116,0.132c8.89,0.023,17.781-0.022,26.671,0.017c4.834,0.021,7.389,2.563,7.4,7.397
		c0.034,14.424,0.045,28.848-0.021,43.272c-0.008,1.788,0.482,3.025,1.854,4.197c3.022,2.581,5.896,5.338,8.86,8.051
		c-0.762,0.834-1.622,0.44-2.357,0.442c-21.228,0.028-42.455,0.011-63.683,0.045c-1.868,0.004-3.587-0.363-5.233-1.19
		c-2.075-1.892-2.821-4.224-2.777-7.035c0.114-7.333,0.077-14.671,0.015-22.006c-0.013-1.554,0.183-2.639,1.75-3.51
		c2.519-1.398,3.357-3.868,3.349-6.686c-0.021-6.792-0.005-13.584,0.007-20.377C86.875,69.186,86.531,67.994,87.923,67.476z"/>
	<path fill-rule="evenodd" clip-rule="evenodd" fill="#B53236" d="M110.71,94.584c0-2.084-0.106-4.049,0.032-5.996
		c0.122-1.711-0.324-2.336-2.187-2.285c-5.077,0.138-10.159,0.024-15.24,0.06c-1.288,0.009-2.231,0.042-2.23-1.776
		c0.001-1.775,0.858-1.816,2.19-1.813c13.065,0.029,26.13,0.028,39.195-0.001c1.328-0.003,2.155,0.054,2.173,1.814
		c0.018,1.823-0.897,1.785-2.187,1.775c-5.261-0.037-10.524,0.049-15.785-0.053c-1.683-0.031-2.221,0.47-2.108,2.146
		c0.143,2.144,0.034,4.306,0.034,6.502c1.109,0.146,1.411-0.811,2.003-1.248c4.334-3.212,9.839-1.897,12.064,3.009
		c3.074,6.776-1.563,12.88-6.534,15.737c-1.335,0.768-1.455-0.688-1.806-1.34c-0.377-0.7-1.738-1.479-0.165-2.403
		c1.414-0.831,2.684-1.861,3.743-3.124c1.263-1.505,2.069-3.193,1.916-5.22c-0.293-3.898-3.705-5.742-6.982-3.658
		c-2.644,1.682-4.374,3.962-4.271,7.367c0.115,3.898,0.002,7.802,0.044,11.703c0.014,1.356,0.121,2.385-1.89,2.34
		c-1.786-0.04-2.133-0.654-2.044-2.23c0.116-2.078,0.028-4.167,0.028-6.75c-2.528,1.768-5.043,2.797-7.9,2.229
		c-2.818-0.561-4.991-2.069-6.49-4.526c-2.395-3.926-1.917-9.283,1.096-12.373C100.666,91.127,104.388,91.122,110.71,94.584z"/>
	<path fill-rule="evenodd" clip-rule="evenodd" fill="#FDFDFD" d="M98.589,101.681c-0.034-3.342,2.3-5.973,5.351-6.028
		c3.309-0.062,6.774,2.446,6.791,4.913c0.025,4.074-2.837,7.273-6.508,7.271C101.163,107.833,98.624,105.06,98.589,101.681z"/>
	<g>
		<path fill="#FEFEFE" stroke="#8F8F8F" stroke-width="3" stroke-miterlimit="10" d="M83.927,97.859
			c2.161-1.693,2.915-3.998,2.867-6.722c-0.082-4.713-0.058-9.43-0.008-14.143c0.028-2.712-0.284-5.443,0.351-8.136
			c0.343-0.864-0.266-1.521-0.479-2.261c-0.194-0.159-0.388-0.318-0.582-0.477c-0.692-0.358-0.655-1.013-0.656-1.644
			c0-7.491,0.002-14.983,0.002-22.475c0-0.552,0.047-1.085,0.528-1.462c0.134-3.738-4.13-6.632-8.118-6.607
			c-22.319,0.137-44.639,0.063-66.958,0.088c-0.535,0-1.268-0.411-1.678,0.479c3.408,3.113,6.767,6.294,10.264,9.316
			c1.301,1.125,1.725,2.295,1.718,3.977c-0.063,14.154-0.042,28.307-0.029,42.461c0.005,6.01,2.779,8.748,8.848,8.751
			c15.696,0.007,31.392,0.036,47.088-0.042c0.94-0.005,1.538,0.123,1.901,0.473h3.56C82.87,98.86,83.317,98.336,83.927,97.859z
			 M69.214,84.22c-1.247,0.339-3.109,0.922-3.81-1.314c-0.677-2.159-1.596-4.241-2.289-6.396c-0.369-1.147-0.97-1.526-2.165-1.511
			c-4.809,0.063-9.621,0.101-14.428-0.017c-1.512-0.036-2.063,0.614-2.475,1.865c-0.652,1.978-1.563,3.878-2.101,5.881
			c-0.665,2.478-2.589,1.741-3.968,1.489c-1.12-0.204-0.21-1.348,0.027-2c2.792-7.661,5.621-15.306,8.44-22.956
			c1.41-3.825,2.896-7.624,4.194-11.487c0.55-1.638,1.307-2.539,3.106-2.062c1.695-0.423,2.353,0.434,2.9,1.946
			c4.133,11.416,8.373,22.792,12.521,34.202C69.433,82.591,70.722,83.812,69.214,84.22z"/>
		<path fill="#8F8F8F" d="M85.7,50.253c-0.077,4.432-0.044,8.865,0.002,13.298c0.009,0.854-0.394,1.811,0.374,2.57
			c0.057-8.527,0.295-17.056-0.126-25.581C85.361,43.765,85.756,47.016,85.7,50.253z"/>
		<path fill="#8F8F8F" d="M85.422,42.003c0,7.492-0.002,14.983-0.002,22.475c0.001,0.631-0.036,1.286,0.656,1.644
			c-0.768-0.759-0.365-1.717-0.374-2.57c-0.046-4.433-0.079-8.866-0.002-13.298c0.056-3.238-0.339-6.489,0.25-9.713
			C85.469,40.917,85.422,41.451,85.422,42.003z"/>
		<path fill="#B53236" d="M56.646,47.66c-0.548-1.513-1.206-2.37-2.9-1.946c-1.799-0.477-2.556,0.423-3.106,2.062
			c-1.298,3.863-2.784,7.662-4.194,11.487c-2.819,7.649-5.648,15.295-8.44,22.956c-0.237,0.652-1.147,1.795-0.027,2
			c1.378,0.252,3.303,0.989,3.968-1.489c0.538-2.003,1.449-3.904,2.101-5.881c0.412-1.251,0.962-1.9,2.475-1.865
			c4.807,0.118,9.619,0.08,14.428,0.017c1.195-0.015,1.796,0.364,2.165,1.511c0.693,2.155,1.612,4.237,2.289,6.396
			c0.701,2.236,2.563,1.653,3.81,1.314c1.508-0.408,0.219-1.628-0.047-2.358C65.02,70.452,60.779,59.075,56.646,47.66z
			 M47.467,71.811c-1.931,0.018-1.163-1.036-0.842-1.918c2.255-6.2,4.52-12.396,7.013-19.226c2.667,7.278,5.148,14.045,7.745,21.13
			C56.491,71.797,51.979,71.77,47.467,71.811z"/>
		<path fill="#FEFEFE" d="M46.625,69.893c-0.321,0.882-1.089,1.936,0.842,1.918c4.512-0.041,9.024-0.013,13.916-0.013
			c-2.597-7.085-5.078-13.852-7.745-21.13C51.144,57.497,48.88,63.693,46.625,69.893z"/>
	</g>
</g>
</svg>
