<?xml version="1.0" standalone="no"?>
<!DOCTYPE svg PUBLIC "-//W3C//DTD SVG 20010904//EN"
 "http://www.w3.org/TR/2001/REC-SVG-20010904/DTD/svg10.dtd">
<svg version="1.0" xmlns="http://www.w3.org/2000/svg"
 width="488.000000pt" height="512.000000pt" viewBox="0 0 488.000000 512.000000"
 preserveAspectRatio="xMidYMid meet">

<g transform="translate(0.000000,512.000000) scale(0.100000,-0.100000)"
fill="#000000" stroke="none">
<path d="M1296 4868 c-22 -6 -57 -28 -81 -52 -46 -44 -65 -91 -65 -162 l0 -42
-317 -4 c-266 -4 -327 -8 -373 -22 -186 -60 -319 -194 -377 -381 -17 -57 -18
-140 -18 -1835 0 -1466 2 -1785 14 -1830 48 -195 206 -353 401 -401 83 -21
3839 -21 3920 0 192 48 336 188 397 387 17 56 18 140 18 1839 l0 1780 -22 70
c-57 182 -188 312 -373 371 -46 14 -106 18 -370 21 l-315 4 -3 32 c-11 131
-66 205 -174 231 -37 9 -102 -7 -142 -34 -53 -37 -78 -85 -84 -162 -4 -60 -7
-69 -27 -74 -12 -3 -411 -4 -886 -2 l-864 3 -6 73 c-10 103 -53 160 -143 187
-56 17 -56 17 -110 3z m2304 -1957 c63 -38 104 -116 97 -188 -3 -28 -12 -63
-19 -78 -22 -42 -1258 -1274 -1300 -1296 -49 -25 -129 -25 -182 1 -57 27 -840
812 -861 862 -30 73 -13 171 38 226 55 59 156 79 235 47 25 -11 143 -121 359
-338 l323 -322 545 545 c300 300 548 547 550 549 3 2 26 10 52 16 62 16 107 9
163 -24z"/>
</g>
</svg>
