<?xml version="1.0" standalone="no"?>
<!DOCTYPE svg PUBLIC "-//W3C//DTD SVG 20010904//EN"
 "http://www.w3.org/TR/2001/REC-SVG-20010904/DTD/svg10.dtd">
<svg version="1.0" xmlns="http://www.w3.org/2000/svg"
 width="512.000000pt" height="512.000000pt" viewBox="0 0 512.000000 512.000000"
 preserveAspectRatio="xMidYMid meet">

<g transform="translate(0.000000,512.000000) scale(0.100000,-0.100000)"
fill="#000000" stroke="none">
<path d="M3865 4615 c-25 -24 -25 -26 -25 -215 0 -189 0 -191 25 -215 15 -16
36 -25 55 -25 19 0 40 9 55 25 25 24 25 26 25 215 0 189 0 191 -25 215 -15 16
-36 25 -55 25 -19 0 -40 -9 -55 -25z"/>
<path d="M829 4325 c-39 -21 -52 -59 -35 -98 17 -39 3411 -3432 3442 -3441 32
-10 71 10 89 43 13 27 14 35 1 63 -15 36 -3413 3438 -3433 3438 -6 0 -17 2
-25 5 -7 2 -25 -2 -39 -10z"/>
<path d="M3149 4325 c-38 -21 -52 -59 -35 -98 19 -43 244 -264 279 -272 51
-13 105 42 92 93 -8 34 -230 260 -272 278 -38 16 -32 17 -64 -1z"/>
<path d="M4625 4326 c-42 -19 -262 -245 -270 -278 -13 -51 41 -106 92 -93 35
8 261 229 279 273 12 28 12 36 0 60 -11 22 -55 54 -69 52 -1 -1 -15 -7 -32
-14z"/>
<path d="M3801 3984 c-253 -68 -410 -331 -346 -579 67 -256 329 -415 580 -350
256 67 415 329 350 578 -67 259 -333 419 -584 351z"/>
<path d="M2825 3575 c-16 -15 -25 -36 -25 -55 0 -19 9 -40 25 -55 24 -25 26
-25 215 -25 189 0 191 0 215 25 16 15 25 36 25 55 0 19 -9 40 -25 55 -24 25
-26 25 -215 25 -189 0 -191 0 -215 -25z"/>
<path d="M4585 3575 c-16 -15 -25 -36 -25 -55 0 -19 9 -40 25 -55 24 -25 26
-25 215 -25 189 0 191 0 215 25 16 15 25 36 25 55 0 19 -9 40 -25 55 -24 25
-26 25 -215 25 -189 0 -191 0 -215 -25z"/>
<path d="M3365 3071 c-47 -30 -243 -233 -254 -264 -21 -54 38 -118 93 -101 26
8 253 230 272 266 20 39 18 56 -15 89 -34 34 -55 36 -96 10z"/>
<path d="M4379 3061 c-31 -32 -35 -50 -18 -84 16 -31 229 -246 261 -262 58
-31 130 31 107 92 -12 32 -221 247 -261 269 -39 20 -56 18 -89 -15z"/>
<path d="M3865 2855 c-25 -24 -25 -26 -25 -215 0 -189 0 -191 25 -215 15 -16
36 -25 55 -25 19 0 40 9 55 25 25 24 25 26 25 215 0 189 0 191 -25 215 -15 16
-36 25 -55 25 -19 0 -40 -9 -55 -25z"/>
<path d="M1385 2656 c-30 -30 -30 -34 0 -196 33 -180 6 -369 -81 -549 -99
-209 -246 -355 -455 -456 -178 -85 -368 -113 -549 -80 -162 30 -166 30 -196 0
-22 -22 -26 -33 -22 -68 7 -57 59 -185 114 -277 152 -255 398 -436 701 -517
84 -22 120 -26 253 -27 93 0 179 4 215 12 466 101 796 431 897 897 8 36 12
122 12 215 -1 133 -5 169 -27 253 -96 360 -336 640 -664 774 -120 49 -164 53
-198 19z"/>
</g>
</svg>
