<?xml version="1.0" standalone="no"?>
<!DOCTYPE svg PUBLIC "-//W3C//DTD SVG 20010904//EN"
 "http://www.w3.org/TR/2001/REC-SVG-20010904/DTD/svg10.dtd">
<svg version="1.0" xmlns="http://www.w3.org/2000/svg"
 width="662.000000pt" height="492.000000pt" viewBox="0 0 662.000000 492.000000"
 preserveAspectRatio="xMidYMid meet">

<g transform="translate(0.000000,492.000000) scale(0.100000,-0.100000)"
fill="#000000" stroke="none">
<path d="M1566 4614 c-84 -57 -87 -179 -7 -239 73 -53 193 -22 220 57 50 142
-93 264 -213 182z m155 -26 c36 -27 52 -88 36 -137 -14 -42 -67 -81 -110 -81
-38 0 -96 36 -108 67 -47 124 78 227 182 151z"/>
<path d="M2148 3949 c-17 -9 -18 -42 -18 -464 0 -359 -3 -453 -12 -450 -12 5
-22 18 -76 110 -53 90 -117 133 -204 137 -74 4 -72 -15 3 -24 76 -9 117 -35
164 -105 19 -29 35 -55 35 -57 0 -3 19 -33 43 -68 l42 -63 0 -454 0 -453 -132
1 c-81 1 -141 -2 -153 -9 -21 -11 -21 -16 -18 -340 3 -314 4 -330 24 -356 11
-15 33 -37 48 -48 27 -21 39 -21 684 -24 l656 -3 60 -38 c186 -117 338 -159
537 -148 211 12 443 119 562 258 19 21 40 39 47 39 20 0 110 -60 110 -74 0 -7
-5 -17 -12 -24 -17 -17 -16 -17 247 -194 127 -85 258 -174 293 -198 105 -72
202 -67 252 15 18 29 22 47 18 90 -5 61 -18 80 -88 127 -281 192 -562 378
-570 378 -5 0 -13 -8 -18 -17 -8 -14 -14 -15 -38 -4 -16 6 -44 24 -63 40 l-33
27 21 43 c12 23 33 87 47 141 47 192 25 397 -61 572 -51 102 -77 140 -163 230
l-64 68 4 182 3 183 36 55 c20 30 52 80 71 110 20 30 44 63 55 72 29 26 88 48
130 48 43 0 72 13 54 24 -6 4 -38 4 -71 0 -91 -10 -135 -43 -204 -153 -32 -50
-62 -89 -67 -85 -5 3 -9 193 -9 448 0 330 -3 445 -12 454 -16 16 -2133 17
-2160 1z m2133 -19 c18 -10 19 -28 19 -655 0 -403 -4 -645 -10 -645 -5 0 -26
11 -47 26 -99 67 -215 108 -360 128 -200 28 -410 -23 -584 -140 -158 -107
-269 -260 -336 -464 -29 -87 -42 -291 -25 -375 38 -185 112 -334 223 -450 22
-23 39 -44 39 -48 0 -4 -247 -7 -550 -7 -302 0 -550 3 -550 8 0 4 12 25 25 47
l25 40 0 1262 c0 1191 1 1263 18 1272 24 14 2086 15 2113 1z m-338 -1181 c137
-22 300 -109 415 -221 121 -119 195 -259 231 -435 26 -127 26 -179 0 -306 -64
-311 -263 -532 -574 -638 -63 -22 -87 -24 -235 -24 -156 0 -170 2 -249 29
-140 48 -255 121 -352 223 -95 100 -149 197 -196 353 -36 118 -37 297 -4 415
101 354 369 578 741 619 44 4 135 -2 223 -15z m-1818 -1034 l0 -310 -24 -39
c-27 -43 -103 -85 -124 -68 -7 5 -23 12 -37 15 -14 4 -39 20 -55 37 l-30 31
-3 325 -3 325 138 -3 138 -3 0 -310z m2462 -231 c60 -40 59 -28 7 -109 -9 -14
-20 -25 -25 -25 -13 0 -108 63 -108 72 -1 9 61 98 67 98 3 0 29 -16 59 -36z
m148 -30 c14 -9 25 -21 25 -27 0 -12 -109 -175 -122 -183 -9 -6 -68 26 -68 37
0 12 124 189 132 189 5 0 20 -7 33 -16z m267 -181 c112 -75 223 -151 248 -168
25 -17 54 -48 64 -70 17 -35 18 -42 5 -78 -19 -53 -56 -80 -112 -80 -39 0 -59
10 -168 84 -68 46 -177 119 -242 163 -66 43 -121 85 -124 92 -5 15 108 194
123 194 2 0 95 -62 206 -137z"/>
<path d="M2878 3338 c-49 -65 -142 -92 -221 -65 -42 14 -57 13 -57 -3 0 -4 27
-15 60 -25 58 -18 63 -18 117 -1 65 21 137 81 132 111 -3 15 -8 13 -31 -17z"/>
<path d="M3585 3362 c-10 -10 -5 -22 26 -56 31 -35 118 -76 163 -76 37 0 117
31 113 44 -3 6 -11 9 -18 7 -110 -32 -172 -21 -236 44 -24 23 -45 40 -48 37z"/>
<path d="M2842 3228 c-21 -21 -14 -57 13 -70 32 -14 55 3 55 42 0 37 -42 54
-68 28z"/>
<path d="M3592 3228 c-21 -21 -14 -57 13 -70 32 -14 55 3 55 42 0 37 -42 54
-68 28z"/>
<path d="M3695 2623 c-57 -6 -183 -49 -252 -85 -72 -39 -208 -173 -249 -248
-238 -424 18 -948 495 -1012 499 -66 896 415 732 885 -75 217 -218 357 -438
431 -72 25 -206 38 -288 29z m290 -55 c84 -31 133 -58 203 -114 98 -79 162
-170 209 -296 25 -66 28 -85 28 -208 0 -116 -3 -144 -23 -199 -40 -112 -84
-182 -163 -261 -61 -62 -94 -85 -170 -122 -104 -51 -175 -68 -289 -68 -114 0
-185 17 -289 68 -132 64 -227 159 -293 292 -57 115 -73 196 -65 329 15 269
192 498 447 579 98 31 97 31 220 28 91 -3 129 -9 185 -28z"/>
<path d="M5269 3093 c-14 -2 -41 -19 -59 -38 -57 -59 -51 -169 13 -209 97 -62
217 2 217 117 0 38 -6 53 -31 81 -25 29 -88 60 -109 54 -3 0 -17 -3 -31 -5z
m105 -53 c44 -39 53 -78 29 -127 -21 -44 -53 -63 -104 -63 -102 0 -142 144
-56 199 47 30 89 27 131 -9z"/>
<path d="M1406 1233 c-3 -3 -6 -28 -6 -55 l0 -48 -55 0 c-42 0 -55 -3 -55 -15
0 -11 13 -15 54 -15 l55 0 3 -52 c4 -74 28 -77 28 -4 l0 56 55 0 c42 0 55 3
55 15 0 12 -13 15 -55 15 l-55 0 0 49 c0 47 -9 68 -24 54z"/>
</g>
</svg>
