<?xml version="1.0" standalone="no"?>
<!DOCTYPE svg PUBLIC "-//W3C//DTD SVG 20010904//EN"
 "http://www.w3.org/TR/2001/REC-SVG-20010904/DTD/svg10.dtd">
<svg version="1.0" xmlns="http://www.w3.org/2000/svg"
 width="356.000000pt" height="330.000000pt" viewBox="0 0 356.000000 330.000000"
 preserveAspectRatio="xMidYMid meet">

<g transform="translate(0.000000,330.000000) scale(0.100000,-0.100000)"
fill="#000000" stroke="none">
<path d="M890 3056 c-315 -67 -550 -274 -650 -574 -56 -167 -54 -385 7 -571
97 -300 351 -622 858 -1090 282 -261 664 -601 675 -601 10 0 396 343 676 601
456 421 713 733 823 999 66 162 76 213 75 400 0 153 -2 171 -28 250 -74 227
-222 402 -426 505 -254 129 -568 127 -829 -4 -80 -41 -214 -136 -263 -188
l-28 -29 -57 54 c-109 103 -249 183 -400 228 -73 22 -113 27 -228 30 -93 2
-162 -1 -205 -10z"/>
</g>
</svg>
