<?xml version="1.0" standalone="no"?>
<!DOCTYPE svg PUBLIC "-//W3C//DTD SVG 20010904//EN"
 "http://www.w3.org/TR/2001/REC-SVG-20010904/DTD/svg10.dtd">
<svg version="1.0" xmlns="http://www.w3.org/2000/svg"
 width="640.000000pt" height="640.000000pt" viewBox="0 0 640.000000 640.000000"
 preserveAspectRatio="xMidYMid meet">

<g transform="translate(0.000000,640.000000) scale(0.100000,-0.100000)"
fill="#000000" stroke="none">
<path d="M2305 6352 c-324 -105 -570 -221 -832 -394 -647 -426 -1109 -1043
-1333 -1779 -48 -158 -96 -385 -110 -522 -5 -54 -14 -106 -19 -115 -14 -27 -8
-534 8 -632 74 -470 165 -775 336 -1125 322 -657 860 -1166 1582 -1494 381
-173 754 -262 1154 -275 58 -1 111 -6 118 -10 6 -4 17 -4 24 1 7 5 63 10 125
11 286 4 636 69 939 173 260 90 482 201 723 361 642 427 1084 1014 1305 1733
20 66 45 148 56 182 29 94 26 155 -12 209 -39 57 -92 84 -164 84 -73 0 -110
-17 -219 -99 -399 -299 -782 -456 -1225 -502 -143 -15 -468 -6 -611 16 -440
68 -799 227 -1160 514 -466 370 -784 942 -865 1554 -17 137 -20 422 -4 565 48
442 197 821 466 1184 92 124 107 188 65 273 -33 68 -100 113 -180 121 -36 3
-75 -5 -167 -34z m-421 -787 c-91 -274 -148 -531 -175 -793 -15 -146 -6 -532
15 -667 22 -141 81 -371 128 -500 160 -445 534 -971 882 -1243 435 -342 883
-540 1393 -619 154 -24 552 -24 723 0 255 36 537 110 794 208 71 27 131 47
134 45 6 -7 -105 -201 -175 -305 -149 -220 -373 -463 -573 -621 -652 -517
-1446 -723 -2255 -585 -280 48 -496 120 -770 255 -295 145 -500 293 -736 529
-236 237 -384 442 -534 746 -145 293 -236 594 -276 920 -16 129 -16 521 0 650
103 825 539 1541 1216 1995 70 47 257 152 261 147 1 -1 -22 -74 -52 -162z"/>
</g>
</svg>
