<?xml version="1.0" standalone="no"?>
<!DOCTYPE svg PUBLIC "-//W3C//DTD SVG 20010904//EN"
 "http://www.w3.org/TR/2001/REC-SVG-20010904/DTD/svg10.dtd">
<svg version="1.0" xmlns="http://www.w3.org/2000/svg"
 width="165.000000pt" height="165.000000pt" viewBox="0 0 165.000000 165.000000"
 preserveAspectRatio="xMidYMid meet">

<g transform="translate(0.000000,165.000000) scale(0.100000,-0.100000)"
fill="#000000" stroke="none">
<path d="M806 1504 c-12 -12 -16 -38 -16 -114 0 -115 4 -130 35 -130 31 0 35
15 35 126 0 121 -16 156 -54 118z"/>
<path d="M337 1313 c-18 -17 -1 -45 72 -117 79 -79 111 -93 119 -52 3 13 -21
44 -74 97 -72 73 -100 90 -117 72z"/>
<path d="M1197 1242 c-80 -80 -94 -112 -53 -120 26 -5 178 146 174 173 -6 43
-41 27 -121 -53z"/>
<path d="M723 1132 c-143 -51 -223 -162 -223 -308 0 -182 143 -324 325 -324
135 0 259 84 305 207 29 78 25 186 -9 257 -71 144 -251 220 -398 168z m192
-59 c65 -22 136 -93 158 -158 35 -102 13 -200 -63 -275 -105 -106 -265 -106
-370 0 -106 105 -106 265 0 371 74 74 174 97 275 62z"/>
<path d="M139 844 c-9 -11 -10 -20 -2 -32 8 -14 30 -18 109 -20 123 -4 144 1
144 32 0 32 -15 36 -135 36 -81 0 -105 -3 -116 -16z"/>
<path d="M1259 844 c-9 -11 -10 -20 -2 -32 8 -14 30 -18 109 -20 54 -2 109 0
120 2 29 8 37 32 18 51 -23 22 -226 22 -245 -1z"/>
<path d="M408 453 c-82 -83 -100 -123 -55 -123 31 0 180 150 175 176 -7 41
-42 26 -120 -53z"/>
<path d="M1127 523 c-18 -17 -1 -44 71 -116 82 -81 122 -99 122 -54 0 15 -26
49 -78 100 -72 71 -98 87 -115 70z"/>
<path d="M806 384 c-23 -22 -23 -216 0 -238 19 -20 19 -20 38 0 23 22 23 216
0 238 -8 9 -17 16 -19 16 -2 0 -11 -7 -19 -16z"/>
</g>
</svg>
